<svg width="512" height="512" viewBox="0 0 512 512" fill="none" xmlns="http://www.w3.org/2000/svg">
  <defs>
    <radialGradient id="bg" cx="0" cy="0" r="1" gradientUnits="userSpaceOnUse" gradientTransform="translate(166 150) rotate(49.8) scale(412 418)">
      <stop offset="0" stop-color="#8E7EFF"/>
      <stop offset="0.34" stop-color="#7D64F6"/>
      <stop offset="0.72" stop-color="#4A3C88"/>
      <stop offset="1" stop-color="#30285D"/>
    </radialGradient>
    <linearGradient id="pill" x1="28" y1="0" x2="174" y2="0" gradientUnits="userSpaceOnUse">
      <stop offset="0" stop-color="#F7F4FF"/>
      <stop offset="1" stop-color="#B69DFF"/>
    </linearGradient>
    <linearGradient id="shine" x1="150" y1="34" x2="312" y2="220" gradientUnits="userSpaceOnUse">
      <stop offset="0" stop-color="white" stop-opacity="0"/>
      <stop offset="0.35" stop-color="white" stop-opacity="0.18"/>
      <stop offset="0.55" stop-color="white" stop-opacity="0.2"/>
      <stop offset="1" stop-color="white" stop-opacity="0"/>
    </linearGradient>
    <filter id="shadow" x="48" y="60" width="416" height="416" filterUnits="userSpaceOnUse" color-interpolation-filters="sRGB">
      <feFlood flood-opacity="0" result="BackgroundImageFix"/>
      <feColorMatrix in="SourceAlpha" type="matrix" values="0 0 0 0 0 0 0 0 0 0 0 0 0 0 0 0 0 0 127 0" result="hardAlpha"/>
      <feOffset dy="42"/>
      <feGaussianBlur stdDeviation="28"/>
      <feColorMatrix type="matrix" values="0 0 0 0 0.27451 0 0 0 0 0.203922 0 0 0 0 0.607843 0 0 0 0.2 0"/>
      <feBlend mode="normal" in2="BackgroundImageFix" result="effect1_dropShadow_0_1"/>
      <feBlend mode="normal" in="SourceGraphic" in2="effect1_dropShadow_0_1" result="shape"/>
    </filter>
  </defs>

  <g filter="url(#shadow)">
    <rect x="80" y="80" width="352" height="352" rx="108" fill="url(#bg)"/>

    <g opacity="0.92">
      <circle cx="220" cy="174" r="11" fill="white" fill-opacity="0.96"/>
      <circle cx="274" cy="148" r="8.5" fill="white" fill-opacity="0.8"/>
      <path d="M87 272C152 236 179 205 208 173C238 140 277 116 339 103H432V218C387 218 354 228 328 248C300 270 271 306 228 343C194 373 143 404 80 432L87 272Z" fill="url(#shine)"/>
    </g>

    <g transform="translate(0 6) rotate(-9 162 330)">
      <rect x="68" y="258" width="226" height="136" rx="68" fill="url(#pill)" fill-opacity="0.95"/>
    </g>
  </g>
</svg>
